<svg xmlns="http://www.w3.org/2000/svg" viewBox="0 0 100 100"><style>.st0{fill:#626261}</style><path class="st0" d="M0 0v100h100V0H0zm90 90H10V10h80v80z"/><path class="st0" d="M64 54c0-7.7-6.3-14-14-14-3.3 0-6-2.7-6-6s2.7-6 6-6 6 2.7 6 6h8c0-7.7-6.3-14-14-14s-14 6.3-14 14c0 2.2.5 4.2 1.4 6-.9 1.8-1.4 3.8-1.4 6 0 7.7 6.3 14 14 14 3.3 0 6 2.7 6 6s-2.7 6-6 6-6-2.7-6-6h-8c0 7.7 6.3 14 14 14s14-6.3 14-14c0-2.2-.5-4.2-1.4-6 .9-1.8 1.4-3.8 1.4-6zm-14-2c-3.1 0-5.6-2.3-6-5.3 1.8.9 3.8 1.3 6 1.3 3.1 0 5.6 2.3 6 5.3-1.8-.8-3.9-1.3-6-1.3z"/></svg>