<svg xmlns="http://www.w3.org/2000/svg" viewBox="0 0 100 100"><style>.st0{fill:#626261}</style><path class="st0" d="M0 0v100h100V0H0zm90 90H10V10h80v80z"/><path transform="rotate(-45.001 59 59.001)" class="st0" d="M54 34h10v50H54z"/><path transform="rotate(-45.001 34 34)" class="st0" d="M29 29h10v10H29z"/><path transform="rotate(-45.001 27.5 49.5)" class="st0" d="M24 46h7v7h-7z"/><path transform="rotate(-45.001 51 26)" class="st0" d="M47 22h8v8h-8z"/><path transform="rotate(-45.001 23.5 23.5)" class="st0" d="M21 21h5v5h-5z"/><path transform="rotate(-45.001 56.5 39.5)" class="st0" d="M54 37h5v5h-5z"/></svg>