<?xml version="1.0" encoding="utf-8"?>
<!-- Generator: Adobe Illustrator 22.0.1, SVG Export Plug-In . SVG Version: 6.00 Build 0)  -->
<svg version="1.1" id="Ebene_1" xmlns="http://www.w3.org/2000/svg" xmlns:xlink="http://www.w3.org/1999/xlink" x="0px" y="0px"
	 viewBox="0 0 100 100" style="enable-background:new 0 0 100 100;" xml:space="preserve">
<style type="text/css">
	.st0{display:none;fill:#585758;}
	.st1{fill:#585758;}
</style>
<path class="st0" d="M35,34v30h30V34H35z M55,54H45V44h10V54z"/>
<path class="st1" d="M0,0v100h100V0H0z M90,90H10V10h80V90z"/>
<rect x="73" y="17" class="st1" width="10" height="10"/>
<rect x="15" y="10" class="st1" width="5" height="10"/>
<rect x="22" y="10" class="st1" width="5" height="10"/>
<rect x="29" y="10" class="st1" width="5" height="10"/>
<path class="st1" d="M50,30c-11,0-20,9-20,20v0c0,11,9,20,20,20s20-9,20-20v0C70,39,61,30,50,30z M50,59.7c-5.4,0-9.7-4.4-9.7-9.7
	s4.4-9.7,9.7-9.7s9.7,4.4,9.7,9.7S55.4,59.7,50,59.7z"/>
<g>
	<rect x="60" y="40" class="st1" width="30" height="10"/>
	<rect x="10" y="40" class="st1" width="30" height="10"/>
</g>
</svg>
