<?xml version="1.0" encoding="utf-8"?>
<!-- Generator: Adobe Illustrator 22.0.1, SVG Export Plug-In . SVG Version: 6.00 Build 0)  -->
<svg version="1.1" id="Ebene_4" xmlns="http://www.w3.org/2000/svg" xmlns:xlink="http://www.w3.org/1999/xlink" x="0px" y="0px"
	 viewBox="0 0 100 100" style="enable-background:new 0 0 100 100;" xml:space="preserve">
<style type="text/css">
	.st0{fill:#585758;}
</style>
<path class="st0" d="M80,0H20C9,0,0,9,0,20v20v40c0,11,9,20,20,20h60c11,0,20-9,20-20V40V20C100,9,91,0,80,0z M75,20
	c3.3,0,6,2.7,6,6s-2.7,6-6,6s-6-2.7-6-6S71.7,20,75,20z M59.9,48.3C61,55.2,55.2,61,48.3,59.9c-4.1-0.7-7.5-4-8.2-8.2
	C39,44.9,44.9,39,51.7,40.1C55.8,40.8,59.2,44.2,59.9,48.3z M90,70c0,11-9,20-20,20H30c-11,0-20-9-20-20V40h22.7
	C31,43,30,46.4,30,50v0c0,11,9,20,20,20s20-9,20-20v0c0-3.6-1-7.1-2.7-10H90V70z"/>
</svg>
