<svg xmlns="http://www.w3.org/2000/svg" viewBox="0 0 120 120"><path d="M100 120H20c-11 0-20-9-20-20V20C0 8.9 9 0 20 0h80c11 0 20 9 20 20v80c0 11-8.9 20-20 20z" fill="#bcb693"/><path d="M90 10H30c-11 0-20 9-20 20v60c0 11 9 20 20 20h60c11 0 20-9 20-20V30c0-11-9-20-20-20zm-5 20c3.3 0 6 2.7 6 6s-2.7 6-6 6-6-2.7-6-6 2.7-6 6-6zM69.9 58.3C71 65.2 65.2 71 58.3 69.9c-4.1-.7-7.5-4-8.2-8.2C49 54.9 54.9 49 61.7 50.1c4.1.7 7.5 4.1 8.2 8.2zM100 80c0 11-9 20-20 20H40c-11 0-20-9-20-20V50h22.7C41 53 40 56.4 40 60c0 11 9 20 20 20s20-9 20-20c0-3.6-1-7.1-2.7-10H100v30z" fill="#585758"/></svg>