<svg xmlns="http://www.w3.org/2000/svg" viewBox="0 0 100 100"><style>.st0{fill:#626261}</style><path class="st0" d="M0 0v100h100V0H0zm90 90H10V10h80v80z"/><path class="st0" d="M74.9 64.5h-9.6c-1.9 0-3.4-1.5-3.4-3.4s1.5-3.4 3.4-3.4h17v-6.8H64.5c-5.3.4-9.5 4.8-9.5 10.2 0 5.6 4.5 10.2 10.1 10.2h9.6c1.9 0 3.4 1.5 3.4 3.4s-1.5 3.4-3.4 3.4H56.3V85h18.4C80.4 85 85 80.4 85 74.8s-4.5-10.2-10.1-10.3zM37.5 15H15v70h10V60h12.5C49.9 60 60 49.9 60 37.5S49.9 15 37.5 15zm0 35H25V25h12.5C44.4 25 50 30.6 50 37.5S44.4 50 37.5 50z"/></svg>